<?xml version="1.0" encoding="UTF-8" standalone="no"?>
<svg width="65px" height="85px" viewBox="0 0 65 85" version="1.1" xmlns="http://www.w3.org/2000/svg" xmlns:xlink="http://www.w3.org/1999/xlink">
    <!-- Generator: Sketch 50.2 (55047) - http://www.bohemiancoding.com/sketch -->
    <title>Group 3</title>
    <desc>Created with Sketch.</desc>
    <defs>
        <linearGradient x1="50%" y1="-58.9523855%" x2="50%" y2="178.644825%" id="linearGradient-1">
            <stop stop-color="#FFFFFF" stop-opacity="0.990857111" offset="0%"></stop>
            <stop stop-color="#FDFDFD" offset="100%"></stop>
        </linearGradient>
    </defs>
    <g id="Page-1" stroke="none" stroke-width="1" fill="none" fill-rule="evenodd">
        <g id="Artboard" transform="translate(-82.000000, -40.000000)">
            <g id="Group-3" transform="translate(82.000000, 39.000000)">
                <path d="M52.7243507,3.17157288 L61.8284271,12.2756493 C62.5785726,13.0257948 63,14.0432104 63,15.1040764 L63,79.8722296 C63,81.6552671 62.8143488,82.3018396 62.4657346,82.9536914 C62.1171204,83.6055433 61.6055433,84.1171204 60.9536914,84.4657346 C60.3018396,84.8143488 59.6552671,85 57.8722296,85 L7.1277704,85 C5.34473292,85 4.69816044,84.8143488 4.04630859,84.4657346 C3.39445674,84.1171204 2.88287959,83.6055433 2.53426541,82.9536914 C2.18565122,82.3018396 2,81.6552671 2,79.8722296 L2,7.1277704 C2,5.34473292 2.18565122,4.69816044 2.53426541,4.04630859 C2.88287959,3.39445674 3.39445674,2.88287959 4.04630859,2.53426541 C4.69816044,2.18565122 5.34473292,2 7.1277704,2 L49.8959236,2 C50.9567896,2 51.9742052,2.42142736 52.7243507,3.17157288 Z" id="Combined-Shape" fill="#E6E6E6" transform="translate(32.500000, 43.500000) rotate(-2.000000) translate(-32.500000, -43.500000) "></path>
                <g id="Group-4" transform="translate(2.000000, 1.000000)">
                    <path d="M50.7243507,1.17157288 L59.8284271,10.2756493 C60.5785726,11.0257948 61,12.0432104 61,13.1040764 L61,77.8722296 C61,79.6552671 60.8143488,80.3018396 60.4657346,80.9536914 C60.1171204,81.6055433 59.6055433,82.1171204 58.9536914,82.4657346 C58.3018396,82.8143488 57.6552671,83 55.8722296,83 L5.1277704,83 C3.34473292,83 2.69816044,82.8143488 2.04630859,82.4657346 C1.39445674,82.1171204 0.882879593,81.6055433 0.534265408,80.9536914 C0.185651222,80.3018396 0,79.6552671 0,77.8722296 L0,5.1277704 C0,3.34473292 0.185651222,2.69816044 0.534265408,2.04630859 C0.882879593,1.39445674 1.39445674,0.882879593 2.04630859,0.534265408 C2.69816044,0.185651222 3.34473292,-4.75175455e-14 5.1277704,-4.75175455e-14 L47.8959236,-4.52970994e-14 C48.9567896,-4.54919773e-14 49.9742052,0.421427361 50.7243507,1.17157288 Z" id="Combined-Shape" fill="url(#linearGradient-1)"></path>
                    <path d="M51.5821224,12 C50.6842622,12 50.3586764,11.9065141 50.0304321,11.7309672 C49.7021878,11.5554202 49.4445798,11.2978122 49.2690328,10.9695679 C49.0934859,10.6413236 49,10.3157378 49,9.41787762 L49,1 C49.216831,1.06227519 52.712928,4.43950583 59.4882909,11.1316919 C59.7318463,11.3752473 59.9065872,11.6747535 60,12 L51.5821224,12 Z" id="Combined-Shape" fill="#F6F6F6"></path>
                </g>
                <g id="Group-2" opacity="0.400000006" transform="translate(9.000000, 37.000000)" fill="#000000">
                    <rect id="Rectangle-Copy-2" x="0" y="0" width="44.2372881" height="2"></rect>
                    <rect id="Rectangle-Copy-3" x="0" y="8" width="45" height="2"></rect>
                    <rect id="Rectangle-Copy-5" transform="translate(17.923729, 25.000000) scale(-1, -1) translate(-17.923729, -25.000000) " x="0" y="24" width="35.8474576" height="2"></rect>
                    <rect id="Rectangle-Copy-7" transform="translate(19.449153, 17.000000) scale(-1, -1) translate(-19.449153, -17.000000) " x="0" y="16" width="38.8983051" height="2"></rect>
                </g>
                <g id="Group" opacity="0.400000006" transform="translate(9.000000, 12.000000)" fill="#000000">
                    <rect id="Rectangle" x="0" y="0" width="25" height="2"></rect>
                    <rect id="Rectangle-Copy" x="0" y="6" width="22.7272727" height="2"></rect>
                </g>
            </g>
        </g>
    </g>
</svg>