<?xml version="1.0" encoding="UTF-8" standalone="no"?>
<svg width="65px" height="87px" viewBox="0 0 65 87" version="1.1" xmlns="http://www.w3.org/2000/svg" xmlns:xlink="http://www.w3.org/1999/xlink">
    <!-- Generator: Sketch 50.2 (55047) - http://www.bohemiancoding.com/sketch -->
    <title>Group</title>
    <desc>Created with Sketch.</desc>
    <defs></defs>
    <g id="Page-1" stroke="none" stroke-width="1" fill="none" fill-rule="evenodd">
        <g id="Artboard-Copy-2" transform="translate(-82.000000, -38.000000)">
            <g id="Group" transform="translate(84.000000, 40.000000)">
                <path d="M46.7060284,1.0785931 L59.7322851,13.2615747 C60.5409985,14.0179348 61,15.0756886 61,16.1829816 L61,77.8722296 C61,79.6552671 60.8143488,80.3018396 60.4657346,80.9536914 C60.1171204,81.6055433 59.6055433,82.1171204 58.9536914,82.4657346 C58.3018396,82.8143488 57.6552671,83 55.8722296,83 L5.1277704,83 C3.34473292,83 2.69816044,82.8143488 2.04630859,82.4657346 C1.39445674,82.1171204 0.882879593,81.6055433 0.534265408,80.9536914 C0.185651222,80.3018396 0,79.6552671 0,77.8722296 L0,5.1277704 C0,3.34473292 0.185651222,2.69816044 0.534265408,2.04630859 C0.882879593,1.39445674 1.39445674,0.882879593 2.04630859,0.534265408 C2.69816044,0.185651222 3.34473292,-4.4408921e-14 5.1277704,-4.4408921e-14 L43.9737433,-5.90638649e-14 C44.9883364,-5.92502426e-14 45.9650187,0.385553752 46.7060284,1.0785931 Z" id="Combined-Shape" stroke="#939393" stroke-width="4" stroke-dasharray="12,4"></path>
                <path d="M43,8 L43,15.0112385 C43,17.2203775 44.790861,19.0112385 47,19.0112385 L53.9222932,19.0112385" id="Line" stroke="#979797" stroke-width="2" opacity="0.5" stroke-linecap="square"></path>
            </g>
        </g>
    </g>
</svg>